<svg width="26" height="20" viewBox="0 0 26 20" fill="none" xmlns="http://www.w3.org/2000/svg">
<path d="M26 8.21436V8.92864C26 9.52038 25.515 10.0001 24.9167 10.0001H24.5556L23.3768 18.1602C23.2244 19.2159 22.3102 20 21.232 20H4.76802C3.68979 20 2.77564 19.2159 2.62311 18.1602L1.44444 10.0001H1.08333C0.485017 10.0001 0 9.52038 0 8.92864V8.21436C0 7.62262 0.485017 7.14294 1.08333 7.14294H4.12303L8.94296 0.588471C9.41218 -0.0495607 10.3155 -0.190676 10.9607 0.273384C11.6059 0.737443 11.7485 1.63088 11.2793 2.26895L7.69514 7.14294H18.3049L14.7207 2.26891C14.2515 1.63088 14.3942 0.737399 15.0393 0.273339C15.6844 -0.190721 16.5879 -0.0496499 17.0571 0.588426L21.877 7.14294H24.9167C25.515 7.14294 26 7.62262 26 8.21436ZM14.0833 16.0715V11.0715C14.0833 10.4797 13.5983 10.0001 13 10.0001C12.4017 10.0001 11.9167 10.4797 11.9167 11.0715V16.0715C11.9167 16.6632 12.4017 17.1429 13 17.1429C13.5983 17.1429 14.0833 16.6632 14.0833 16.0715ZM19.1389 16.0715V11.0715C19.1389 10.4797 18.6539 10.0001 18.0556 10.0001C17.4572 10.0001 16.9722 10.4797 16.9722 11.0715V16.0715C16.9722 16.6632 17.4572 17.1429 18.0556 17.1429C18.6539 17.1429 19.1389 16.6632 19.1389 16.0715ZM9.02778 16.0715V11.0715C9.02778 10.4797 8.54276 10.0001 7.94444 10.0001C7.34613 10.0001 6.86111 10.4797 6.86111 11.0715V16.0715C6.86111 16.6632 7.34613 17.1429 7.94444 17.1429C8.54276 17.1429 9.02778 16.6632 9.02778 16.0715Z" fill="#F1F3F6"/>
</svg>
