<svg width="25" height="28" viewBox="0 0 25 28" fill="none" xmlns="http://www.w3.org/2000/svg">
<path d="M22.3214 12.25H20.9821V8.3125C20.9821 3.72969 17.1763 0 12.5 0C7.82366 0 4.01786 3.72969 4.01786 8.3125V12.25H2.67857C1.19978 12.25 0 13.4258 0 14.875V25.375C0 26.8242 1.19978 28 2.67857 28H22.3214C23.8002 28 25 26.8242 25 25.375V14.875C25 13.4258 23.8002 12.25 22.3214 12.25ZM16.5179 12.25H8.48214V8.3125C8.48214 6.14141 10.2846 4.375 12.5 4.375C14.7154 4.375 16.5179 6.14141 16.5179 8.3125V12.25Z" fill="#F1F3F6"/>
</svg>
